<svg width="492" height="112" viewBox="0 0 492 112" fill="none" xmlns="http://www.w3.org/2000/svg">
<path d="M436.006 111.94H-0.00390625V45.31C-0.00390625 20.29 20.2861 0 45.3061 0H491.826L435.996 111.94H436.006ZM40.8361 39.2L24.2661 94.15H50.3261L55.5561 75.07H71.7961V94.15H96.8761V17.83H65.2561C51.2961 17.83 45.8461 22.52 40.8361 39.2ZM60.6861 56.54L64.2861 43.68C66.0261 37.36 66.7961 36.48 70.6061 36.48H71.8061V56.54H60.6861ZM144.746 96.33C153.146 96.33 161.756 94.69 168.406 91.97V48.8H144.416V75.62H143.106C134.386 75.62 128.606 68.42 128.606 56.87C128.606 43.46 136.456 36.92 149.536 36.92C157.606 36.92 164.256 39.54 168.506 44.22V19.25C162.836 16.85 154.766 15.65 147.026 15.65C119.556 15.65 101.776 31.89 101.776 57.52C101.776 80.09 116.826 96.33 144.736 96.33H144.746ZM175.056 94.15H199.586V55.45C214.956 70.6 219.756 80.42 219.756 94.15H243.196V17.83H218.666V43.56L196.536 17.83H175.056V94.15ZM268.056 94.15H293.676V38.55H296.186C304.146 38.55 310.146 40.29 313.626 44.22V17.84H248.106V44.22C251.596 40.3 257.596 38.55 265.546 38.55H268.056V94.15ZM315.816 55.99C315.816 79.87 332.496 96.33 356.486 96.33C363.356 96.33 369.676 94.91 373.166 92.73V67.76C370.436 72.01 365.646 74.19 359.646 74.19C349.066 74.19 342.636 67.21 342.636 55.98C342.636 44.75 349.066 37.77 359.646 37.77C365.646 37.77 370.436 39.95 373.166 44.2V19.23C369.676 17.05 363.356 15.63 356.486 15.63C332.496 15.63 315.816 32.09 315.816 55.97V55.99ZM387.776 94.15H415.036L452.866 17.83H425.396L414.166 43.34L403.046 17.83H375.356L400.646 69.07L387.786 94.15H387.776Z" fill="#187ADC"/>
</svg>
