<svg width="20" height="20" viewBox="0 0 20 20" fill="currentColor" xmlns="http://www.w3.org/2000/svg">
    <path
        d="M6.68952 15.982C6.68952 16.0631 6.59677 16.1279 6.47984 16.1279C6.34677 16.1401 6.25403 16.0752 6.25403 15.982C6.25403 15.9009 6.34677 15.8361 6.46371 15.8361C6.58468 15.8239 6.68952 15.8888 6.68952 15.982ZM5.43548 15.7996C5.40726 15.8807 5.4879 15.9739 5.60887 15.9982C5.71371 16.0387 5.83468 15.9982 5.85887 15.9171C5.88306 15.8361 5.80645 15.7429 5.68548 15.7064C5.58065 15.678 5.46371 15.7186 5.43548 15.7996ZM7.21774 15.7307C7.10081 15.7591 7.02016 15.8361 7.03226 15.9293C7.04435 16.0104 7.14919 16.0631 7.27016 16.0347C7.3871 16.0063 7.46774 15.9293 7.45564 15.8483C7.44355 15.7712 7.33468 15.7186 7.21774 15.7307ZM9.87097 0.200104C4.27823 0.200104 0 4.46778 0 10.0891C0 14.5838 2.81452 18.4299 6.83468 19.7836C7.35081 19.8768 7.53226 19.5566 7.53226 19.2932C7.53226 19.0419 7.52016 17.6558 7.52016 16.8047C7.52016 16.8047 4.69758 17.4127 4.10484 15.597C4.10484 15.597 3.64516 14.4176 2.98387 14.1136C2.98387 14.1136 2.06048 13.4773 3.04839 13.4895C3.04839 13.4895 4.05242 13.5705 4.60484 14.5351C5.4879 16.0995 6.96774 15.6497 7.54435 15.3822C7.6371 14.7337 7.89919 14.2838 8.18952 14.0164C5.93548 13.7651 3.66129 13.4368 3.66129 9.53793C3.66129 8.42338 3.96774 7.86409 4.6129 7.15078C4.50806 6.88735 4.16532 5.80118 4.71774 4.39888C5.56048 4.13544 7.5 5.49316 7.5 5.49316C8.30645 5.2662 9.17339 5.14866 10.0323 5.14866C10.8911 5.14866 11.7581 5.2662 12.5645 5.49316C12.5645 5.49316 14.504 4.13139 15.3468 4.39888C15.8992 5.80523 15.5565 6.88735 15.4516 7.15078C16.0968 7.86814 16.4919 8.42744 16.4919 9.53793C16.4919 13.4489 14.1169 13.761 11.8629 14.0164C12.2339 14.3365 12.5484 14.9445 12.5484 15.8969C12.5484 17.2627 12.5363 18.9528 12.5363 19.2851C12.5363 19.5485 12.7218 19.8687 13.2339 19.7755C17.2661 18.4299 20 14.5838 20 10.0891C20 4.46778 15.4637 0.200104 9.87097 0.200104ZM3.91935 14.1785C3.86694 14.219 3.87903 14.3122 3.94758 14.3892C4.0121 14.4541 4.10484 14.4824 4.15726 14.4297C4.20968 14.3892 4.19758 14.296 4.12903 14.219C4.06452 14.1541 3.97177 14.1258 3.91935 14.1785ZM3.48387 13.8502C3.45565 13.9029 3.49597 13.9677 3.57661 14.0082C3.64113 14.0488 3.72177 14.0366 3.75 13.9799C3.77823 13.9272 3.7379 13.8623 3.65726 13.8218C3.57661 13.7975 3.5121 13.8097 3.48387 13.8502ZM4.79032 15.293C4.72581 15.3457 4.75 15.4673 4.84274 15.5443C4.93548 15.6375 5.05242 15.6497 5.10484 15.5848C5.15726 15.5321 5.13306 15.4105 5.05242 15.3335C4.96371 15.2403 4.84274 15.2282 4.79032 15.293ZM4.33065 14.6972C4.26613 14.7378 4.26613 14.8431 4.33065 14.9364C4.39516 15.0296 4.50403 15.0701 4.55645 15.0296C4.62097 14.9769 4.62097 14.8715 4.55645 14.7783C4.5 14.6851 4.39516 14.6445 4.33065 14.6972Z" />
</svg>