<svg width="22" height="13" viewBox="0 0 22 13" fill="currentColor" xmlns="http://www.w3.org/2000/svg">
    <path
        d="M6.04874 9.7271C6.93573 9.7271 7.6872 9.41912 8.30316 8.80316C8.91912 8.1872 9.2271 7.43573 9.2271 6.54874C9.2271 5.66176 8.91912 4.91028 8.30316 4.29432C7.6872 3.67836 6.93573 3.37038 6.04874 3.37038C5.16176 3.37038 4.41028 3.67836 3.79432 4.29432C3.17836 4.91028 2.87038 5.66176 2.87038 6.54874C2.87038 7.43573 3.17836 8.1872 3.79432 8.80316C4.41028 9.41912 5.16176 9.7271 6.04874 9.7271ZM6.05076 12.5975C4.3715 12.5975 2.94323 12.0084 1.76594 10.8302C0.588646 9.65196 0 8.22435 0 6.54736C0 4.86644 0.587989 3.43832 1.76397 2.26298C2.93994 1.08766 4.3682 0.5 6.04874 0.5C7.46297 0.5 8.65647 0.886807 9.62923 1.66042C10.602 2.43404 11.2792 3.42592 11.661 4.63606H20.1189L22 6.49358L18.7708 10.1261L16.2507 8.01527L14.1398 10.132L12.4258 8.41215H11.661C11.341 9.66764 10.6635 10.6791 9.62834 11.4464C8.59321 12.2138 7.40069 12.5975 6.05076 12.5975Z" />
</svg>