<svg width="20" height="20" viewBox="0 0 20 20" fill="currentColor" xmlns="http://www.w3.org/2000/svg">
    <path fill-rule="evenodd" clip-rule="evenodd"
        d="M6 4C6 1.79086 7.79086 0 10 0C12.2091 0 14 1.79086 14 4C14 5.87677 12.7075 7.45165 10.964 7.88306L10.9641 7.90233C10.9641 7.91455 10.9641 7.92677 10.964 7.93897C10.9639 7.94862 10.9638 7.95825 10.9637 7.96788C10.9956 9.80789 12.3679 11.3212 14.1459 11.5732C14.5364 10.3699 15.6666 9.5 17 9.5C18.6569 9.5 20 10.8431 20 12.5C20 14.1569 18.6569 15.5 17 15.5C15.6997 15.5 14.5927 14.6728 14.1764 13.5159C12.9211 13.4068 11.7837 12.8861 10.8999 12.0896V14.1373C12.1171 14.5195 13 15.6567 13 17C13 18.6569 11.6569 20 10 20C8.34315 20 7 18.6569 7 17C7 15.6568 7.8828 14.5197 9.09985 14.1374V12.0898C8.216 12.8862 7.07872 13.4068 5.82362 13.5159C5.40733 14.6728 4.30027 15.5 3 15.5C1.34315 15.5 0 14.1569 0 12.5C0 10.8431 1.34315 9.5 3 9.5C4.3334 9.5 5.46362 10.3699 5.85409 11.5732C7.63212 11.3212 9.00437 9.80789 9.03627 7.96788C9.03603 7.94606 9.0359 7.92421 9.0359 7.90233L9.03596 7.88306C7.29252 7.45165 6 5.87677 6 4ZM10 2C8.89543 2 8 2.89543 8 4C8 5.10457 8.89543 6 10 6C11.1046 6 12 5.10457 12 4C12 2.89543 11.1046 2 10 2ZM3 11.5C2.44772 11.5 2 11.9477 2 12.5C2 13.0523 2.44772 13.5 3 13.5C3.55228 13.5 4 13.0523 4 12.5C4 11.9477 3.55228 11.5 3 11.5ZM17 11.5C16.4477 11.5 16 11.9477 16 12.5C16 13.0523 16.4477 13.5 17 13.5C17.5523 13.5 18 13.0523 18 12.5C18 11.9477 17.5523 11.5 17 11.5ZM9 17C9 16.4477 9.44772 16 10 16C10.5523 16 11 16.4477 11 17C11 17.5523 10.5523 18 10 18C9.44772 18 9 17.5523 9 17Z" />
</svg>