<svg width="117" height="32" viewBox="0 0 117 32" fill="none" xmlns="http://www.w3.org/2000/svg">
<rect width="117" height="32" rx="16" fill="#00142B"/>
<path d="M3.92823 17.383C3.92971 17.8126 4.28527 18.1563 4.7149 18.1548L12.4853 18.1385C12.9208 18.137 13.266 17.7889 13.2646 17.3593C13.2631 16.9326 12.9134 16.5844 12.4779 16.5874L4.70749 16.6037C4.27786 16.6052 3.92675 16.9548 3.92823 17.383Z" fill="#00BCEB"/>
<path d="M9.20373 23.6333C9.42003 24.0037 9.89855 24.1252 10.2704 23.9089L13.5563 21.9918C13.9326 21.7726 14.0586 21.2985 13.8423 20.9281C13.6275 20.5577 13.1519 20.4333 12.7756 20.6526L9.48966 22.5696C9.11781 22.7859 8.98892 23.2644 9.20373 23.6348V23.6333Z" fill="#00BCEB"/>
<path d="M14.3549 25.8986C14.7282 26.1119 15.2023 25.9771 15.4156 25.6037L16.4379 24.1474C16.6542 23.7697 16.5253 23.2956 16.1534 23.0823C15.7816 22.8704 15.3075 22.9993 15.0912 23.3771L14.069 24.8348C13.8556 25.2082 13.983 25.6882 14.3534 25.9L14.3549 25.8986Z" fill="#00BCEB"/>
<path d="M25.6839 6.10145C25.3105 5.88811 24.8365 6.02293 24.6216 6.39626L20.752 13.1341C20.5357 13.5118 20.6646 13.9859 21.0365 14.1978C21.4083 14.4096 21.8824 14.2807 22.0987 13.903L25.9683 7.16664C26.1817 6.7933 26.0542 6.3133 25.6839 6.10145Z" fill="#74BF4B"/>
<path d="M12.6275 12.1696C12.2986 12.4452 12.2601 12.937 12.5357 13.2674L13.5475 14.7326C13.826 15.0659 14.3149 15.1104 14.6453 14.8348C14.9742 14.5607 15.0186 14.0704 14.7372 13.737L13.7253 12.2719C13.4483 11.9415 12.9549 11.8941 12.6275 12.1696Z" fill="#FF6D2D"/>
<path d="M17.7431 7.98742C17.3134 7.9889 16.9697 8.34445 16.9712 8.77409L16.9875 12.5785C16.989 13.0141 17.3371 13.3593 17.7668 13.3578C18.1934 13.3563 18.5416 13.0067 18.5386 12.5711L18.5223 8.76668C18.5208 8.33705 18.1712 7.98593 17.7431 7.98742Z" fill="#0051AF"/>
<path d="M18.2601 20.343C17.2127 20.343 16.3638 19.4941 16.3638 18.4467C16.3638 17.3993 17.2127 16.5504 18.2601 16.5504C19.3075 16.5504 20.1564 17.3993 20.1564 18.4467C20.1564 19.4941 19.3075 20.343 18.2601 20.343ZM18.2601 15.223C16.4793 15.223 15.0364 16.666 15.0364 18.4467C15.0364 20.2275 16.4793 21.6704 18.2601 21.6704C20.0408 21.6704 21.4838 20.2275 21.4838 18.4467C21.4838 16.666 20.0408 15.223 18.2601 15.223Z" fill="white"/>
<rect x="29" width="87" height="32" rx="16" fill="#00142B"/>
<rect x="31" y="3" width="83" height="26" rx="13" fill="white"/>
<path d="M39.96 9.48H44.12C45.9653 9.48 47.2827 9.83733 48.072 10.552C48.7547 11.1707 49.096 12.0933 49.096 13.32C49.096 14.7173 48.6373 15.7253 47.72 16.344C46.92 16.8773 45.752 17.144 44.216 17.144H42.648V21H39.96V9.48ZM44.152 11.32H42.648V15.304H44.248C45.6347 15.304 46.328 14.6427 46.328 13.32C46.328 11.9867 45.6027 11.32 44.152 11.32ZM56.2163 12.68H58.7123L55.7363 21.176C55.3416 22.3173 54.8829 23.1067 54.3602 23.544C53.9123 23.928 53.3309 24.12 52.6163 24.12C52.1896 24.12 51.7416 24.0613 51.2723 23.944V22.2C51.6563 22.296 51.9976 22.344 52.2963 22.344C52.8509 22.344 53.2296 21.896 53.4323 21H52.7283L49.7363 12.68H52.3923L54.2323 19.176L56.2163 12.68ZM62.1729 21H59.6769V12.68H61.7569L62.0289 13.944C62.4875 12.9413 63.2129 12.44 64.2049 12.44C64.5782 12.44 64.8929 12.4773 65.1489 12.552V14.872C64.8075 14.7653 64.4502 14.712 64.0769 14.712C63.5115 14.712 63.0475 14.984 62.6849 15.528C62.3435 16.04 62.1729 16.712 62.1729 17.544V21ZM68.4363 15.08H65.8763C66.0896 14.184 66.5749 13.5067 67.3323 13.048C68.0149 12.6427 68.8683 12.44 69.8923 12.44C71.1296 12.44 72.0843 12.7493 72.7563 13.368C73.3429 13.9013 73.6363 14.6107 73.6363 15.496V21H71.6843L71.3803 20.136C70.7403 20.872 69.8229 21.24 68.6283 21.24C67.7003 21.24 66.9696 20.9787 66.4363 20.456C65.9563 19.9973 65.7163 19.3787 65.7163 18.6C65.7163 17.8747 65.9989 17.304 66.5643 16.888C67.1083 16.4827 67.9456 16.184 69.0763 15.992L71.1403 15.656V15.288C71.1403 14.4667 70.6976 14.056 69.8123 14.056C69.0336 14.056 68.5749 14.3973 68.4363 15.08ZM69.3483 19.528C69.9243 19.528 70.3829 19.352 70.7243 19C71.0016 18.7013 71.1403 18.344 71.1403 17.928V17.016L69.7163 17.304C69.1723 17.4107 68.7829 17.56 68.5483 17.752C68.3243 17.9333 68.2123 18.1787 68.2123 18.488C68.2123 19.1813 68.5909 19.528 69.3483 19.528ZM77.8135 21H75.3175V12.68H77.0775L77.4935 13.592C78.1335 12.824 78.9815 12.44 80.0375 12.44C81.2002 12.44 82.0428 12.824 82.5655 13.592C83.2482 12.824 84.1655 12.44 85.3175 12.44C86.3202 12.44 87.0828 12.7173 87.6055 13.272C88.1068 13.8053 88.3575 14.5787 88.3575 15.592V21H85.8615V15.528C85.8615 14.6427 85.4188 14.2 84.5335 14.2C84.0322 14.2 83.6482 14.392 83.3815 14.776C83.1788 15.0747 83.0775 15.4533 83.0775 15.912V21H80.5815V15.528C80.5815 14.6427 80.1388 14.2 79.2535 14.2C78.7948 14.2 78.4268 14.3813 78.1495 14.744C77.9255 15.0427 77.8135 15.3947 77.8135 15.8V21ZM90.1163 9.48H92.8043V21H90.1163V9.48ZM94.7256 9.48H99.0456C102.875 9.48 104.79 11.4 104.79 15.24C104.79 19.08 102.886 21 99.0776 21H94.7256V9.48ZM99.0456 11.336H97.4136V19.128H99.0776C101.083 19.128 102.086 17.832 102.086 15.24C102.086 13.832 101.776 12.8027 101.158 12.152C100.646 11.608 99.9416 11.336 99.0456 11.336Z" fill="#00142B"/>
</svg>
