<svg width="105" height="24" viewBox="0 0 105 24" fill="none" xmlns="http://www.w3.org/2000/svg">
<path d="M93.0831 24H0V9.71449C0 4.35019 4.33168 0 9.67316 0H105L93.0809 24H93.0831ZM8.71887 8.4045L5.18136 20.1858H10.7449L11.8614 16.0951H15.3285V20.1858H20.6828V3.82276H13.9323C10.952 3.82276 9.78844 4.8283 8.71887 8.4045ZM12.9566 12.1222L13.7252 9.36502C14.0966 8.01 14.261 7.82133 15.0744 7.82133H15.3306V12.1222H12.9566ZM30.9024 20.6532C32.6957 20.6532 34.5339 20.3016 35.9536 19.7184V10.4627H30.832V16.213H30.5523C28.6907 16.213 27.4567 14.6693 27.4567 12.193C27.4567 9.31785 29.1326 7.91567 31.9251 7.91567C33.6479 7.91567 35.0676 8.4774 35.9749 9.48079V4.12721C34.7645 3.61265 33.0416 3.35537 31.3892 3.35537C25.5247 3.35537 21.7288 6.83723 21.7288 12.3323C21.7288 17.1713 24.9419 20.6532 30.9003 20.6532H30.9024ZM37.3733 20.1858H42.6101V11.8885C45.8915 15.1367 46.9162 17.2421 46.9162 20.1858H51.9204V3.82276H46.6835V9.33929L41.959 3.82276H37.3733V20.1858ZM57.2277 20.1858H62.6973V8.26514H63.2331C64.9325 8.26514 66.2134 8.6382 66.9564 9.48079V3.82491H52.9686V9.48079C53.7137 8.64034 54.9946 8.26514 56.6918 8.26514H57.2277V20.1858ZM67.4239 12.0043C67.4239 17.1242 70.9849 20.6532 76.1065 20.6532C77.5731 20.6532 78.9224 20.3488 79.6675 19.8814V14.5278C79.0846 15.439 78.062 15.9064 76.7811 15.9064C74.5224 15.9064 73.1497 14.4099 73.1497 12.0021C73.1497 9.59443 74.5224 8.09791 76.7811 8.09791C78.062 8.09791 79.0846 8.5653 79.6675 9.47651V4.12292C78.9224 3.65553 77.5731 3.35108 76.1065 3.35108C70.9849 3.35108 67.4239 6.88011 67.4239 12V12.0043ZM82.7865 20.1858H88.6062L96.6825 3.82276H90.818L88.4205 9.29212L86.0465 3.82276H80.135L85.5341 14.8086L82.7887 20.1858H82.7865Z" fill="#187ADC"/>
</svg>
