<svg width="18" height="18" viewBox="0 0 18 18" fill="currentColor" xmlns="http://www.w3.org/2000/svg">
    <path
        d="M6.21444 13.0496H11.7859C11.228 15.9955 10.1114 18 9.00015 18C7.92312 18 6.84069 16.1153 6.26663 13.316L6.21444 13.0514V13.0496ZM0.961551 13.0505H4.83599C5.16351 14.9244 5.72047 16.5194 6.44839 17.6346C4.16073 16.9554 2.23514 15.3975 1.09292 13.3016L0.961551 13.0505ZM13.1652 13.0505H17.0387C16.4847 14.1481 15.7123 15.1209 14.7689 15.9091C13.8256 16.6974 12.7311 17.2846 11.5528 17.6346C12.2321 16.5923 12.7621 15.1342 13.0959 13.4213L13.1652 13.0505ZM13.4369 7.19987H17.8189C18.1226 8.6955 18.0431 10.2437 17.5876 11.7003H13.3551C13.4929 10.4018 13.532 9.09474 13.472 7.79032L13.436 7.19897L13.4369 7.19987ZM0.182345 7.19897H4.56425C4.47012 8.52383 4.48005 9.85405 4.59395 11.1774L4.64523 11.6994H0.412688C-0.0430892 10.2429 -0.12295 8.69468 0.180545 7.19897H0.182345ZM5.92022 7.19897H12.0828C12.1856 8.52511 12.1744 9.85763 12.0495 11.1819L11.9937 11.6994H6.00749C5.85023 10.3517 5.81049 8.99283 5.88872 7.63821L5.92022 7.19897H12.0828H5.91842H5.92022ZM11.65 0.516697L11.5528 0.363682C12.8901 0.76097 14.1171 1.46307 15.1374 2.41482C16.1576 3.36656 16.9434 4.54202 17.4329 5.84883H13.3029C13.0185 3.67421 12.4418 1.80563 11.6491 0.517597L11.65 0.516697ZM6.33951 0.396985L6.44929 0.363682C5.65568 1.5797 5.06633 3.36098 4.75321 5.45279L4.69742 5.84883H0.569249C1.05197 4.5602 1.82284 3.39904 2.82294 2.45412C3.82304 1.50921 5.02589 0.805567 6.33951 0.396985ZM9.00015 4.57764e-05C10.187 4.57764e-05 11.381 2.28808 11.892 5.5653L11.9343 5.84883H6.06598C6.55276 2.42039 7.78005 4.57764e-05 9.00015 4.57764e-05Z" />
</svg>