<svg width="18" height="20" viewBox="0 0 18 20" fill="currentColor" xmlns="http://www.w3.org/2000/svg">
    <path fill-rule="evenodd" clip-rule="evenodd"
        d="M8.96452 18.1987C8.96806 18.1991 8.9796 18.2 9.00019 18.2C9.02075 18.2 9.03229 18.1991 9.03585 18.1987C9.04132 18.1977 9.05054 18.1956 9.06389 18.1911C10.9502 17.5624 12.4393 16.4152 13.5728 14.6937C14.7375 12.9248 15.3015 11.06 15.3015 9.06329V4.27848C15.3015 4.24472 15.2965 4.22936 15.2965 4.22936C15.2965 4.22936 15.2931 4.2179 15.2771 4.19578C15.2363 4.13949 15.1993 4.10995 15.1368 4.0844L9.09484 1.81865C9.04607 1.80214 9.01672 1.8 9.00019 1.8C8.98367 1.8 8.95432 1.80214 8.90554 1.81865L2.86354 4.0844C2.80112 4.10995 2.76413 4.13949 2.72331 4.19578C2.70774 4.21726 2.70399 4.22913 2.70399 4.22913C2.70399 4.22913 2.69893 4.24473 2.69893 4.27848V9.06329C2.69893 11.06 3.26292 12.9248 4.42762 14.6937C5.56112 16.4152 7.05023 17.5624 8.93649 18.1911C8.94983 18.1956 8.95904 18.1977 8.96452 18.1987ZM2.21538 2.40506L8.29133 0.126582C8.52762 0.0421941 8.7639 0 9.00019 0C9.23648 0 9.47276 0.0421941 9.70905 0.126582L15.785 2.40506C16.1732 2.55696 16.4896 2.80169 16.7344 3.13924C16.9791 3.47679 17.1015 3.85654 17.1015 4.27848V9.06329C17.1015 11.4262 16.4264 13.6329 15.0761 15.6835C13.7259 17.7342 11.9116 19.1392 9.6331 19.8987C9.53184 19.9325 9.43057 19.9578 9.32931 19.9747C9.22804 19.9916 9.11833 20 9.00019 20C8.88205 20 8.77234 19.9916 8.67108 19.9747C8.56981 19.9578 8.46855 19.9325 8.36728 19.8987C6.0888 19.1392 4.27445 17.7342 2.92424 15.6835C1.57403 13.6329 0.898926 11.4262 0.898926 9.06329V4.27848C0.898926 3.85654 1.02129 3.47679 1.26601 3.13924C1.51074 2.80169 1.8272 2.55696 2.21538 2.40506Z" />
    <path
        d="M5.83709 9.34292L7.75265 11.2585L12.1629 6.84822C12.3263 6.68488 12.5341 6.60321 12.7866 6.60321C13.039 6.60321 13.2469 6.68488 13.4103 6.84822C13.5736 7.01157 13.6553 7.21946 13.6553 7.4719C13.6553 7.72434 13.5736 7.93223 13.4103 8.09557L8.37633 13.1295C8.19813 13.3077 7.99024 13.3968 7.75265 13.3968C7.51506 13.3968 7.30717 13.3077 7.12898 13.1295L4.58974 10.5903C4.4264 10.4269 4.34473 10.219 4.34473 9.96659C4.34473 9.71415 4.4264 9.50626 4.58974 9.34292C4.75308 9.17957 4.96098 9.0979 5.21341 9.0979C5.46585 9.0979 5.67374 9.17957 5.83709 9.34292Z" />
</svg>