<svg width="18" height="18" viewBox="0 0 18 18" fill="currentColor" xmlns="http://www.w3.org/2000/svg">
    <path fill-rule="evenodd" clip-rule="evenodd"
        d="M1.37855 0.109399C1.11011 -0.0400075 0.782644 -0.0361469 0.517804 0.119547C0.252963 0.27524 0.090332 0.559499 0.090332 0.866714V12.3979C0.090332 12.704 0.251781 12.9873 0.515082 13.1434L8.50341 17.8789C8.77433 18.0395 9.11104 18.0405 9.38291 17.8815L17.4803 13.146C17.7461 12.9906 17.9094 12.7058 17.9094 12.3979V0.866714C17.9094 0.560387 17.7477 0.276811 17.4841 0.12081C17.2205 -0.0351907 16.8941 -0.0404439 16.6256 0.106992L9.01898 4.28367C8.98322 4.27918 8.94679 4.27686 8.90982 4.27686C8.89579 4.27686 8.88183 4.27719 8.86796 4.27785L1.37855 0.109399ZM8.04311 5.80259L1.82376 2.34103V11.9041L8.04311 15.5909V5.80259ZM9.77654 15.6432L16.176 11.9007V2.33139L13.9689 3.54327V6.83011C13.9689 7.26092 13.6197 7.61016 13.1889 7.61016C12.7581 7.61016 12.4088 7.26092 12.4088 6.83011V4.39989L9.77654 5.84525V15.6432ZM3.27067 5.32617C3.48758 4.95395 3.96516 4.82805 4.33738 5.04496L6.50416 6.30767C6.87638 6.52458 7.00228 7.00216 6.78537 7.37437C6.56846 7.74659 6.09088 7.87248 5.71866 7.65557L3.55188 6.39287C3.17966 6.17596 3.05376 5.69838 3.27067 5.32617ZM4.33738 7.60786C3.96516 7.39095 3.48758 7.51685 3.27067 7.88907C3.05376 8.26128 3.17966 8.73886 3.55188 8.95577L5.71866 10.2185C6.09088 10.4354 6.56846 10.3095 6.78537 9.93727C7.00228 9.56506 6.87638 9.08748 6.50416 8.87057L4.33738 7.60786ZM3.27067 10.452C3.48758 10.0798 3.96516 9.95385 4.33738 10.1708L6.50416 11.4335C6.87638 11.6504 7.00228 12.128 6.78537 12.5002C6.56846 12.8724 6.09088 12.9983 5.71866 12.7814L3.55188 11.5187C3.17966 11.3018 3.05376 10.8242 3.27067 10.452Z" />
</svg>